<svg width="540" height="514" viewBox="0 0 540 514" fill="none" xmlns="http://www.w3.org/2000/svg">
<path d="M318.801 431.952C390.589 431.952 448.784 440.88 448.784 451.893C448.784 462.906 390.589 471.834 318.801 471.834C247.014 471.834 188.819 462.906 188.819 451.893C188.819 440.88 247.014 431.952 318.801 431.952Z" fill="#E9EBFF"/>
<path d="M277.903 449.69C285.129 450.3 297.749 451.317 307.621 451.725C313.627 452.031 316.986 451.419 319.021 450.606V451.216C319.021 452.233 318.106 453.049 317.088 453.15C298.36 454.168 283.399 453.556 278.105 453.15C276.986 453.049 276.375 451.929 276.885 450.911C277.189 450.606 277.597 450.096 277.903 449.69Z" fill="#152B40"/>
<path d="M307.724 451.726C297.851 451.318 285.23 450.301 278.003 449.69C285.129 440.938 307.724 435.033 307.724 435.033H314.135C318.512 441.344 319.123 447.349 319.123 450.606C317.087 451.42 313.627 452.03 307.724 451.726Z" fill="white"/>
<path d="M315.155 424.548L314.544 436.355C314.442 437.678 313.526 438.695 312.203 438.899C310.88 439.103 309.251 439.103 307.419 438.492C306.3 438.085 305.485 437.169 305.282 436.05L303.245 424.548H315.155Z" fill="#F8B776"/>
<path d="M389.353 463.328C392.508 462.718 393.933 460.682 394.543 458.443V458.545C395.053 460.885 393.933 463.43 391.796 464.549C389.251 465.974 386.401 466.177 384.163 466.077C381.821 465.974 379.683 464.651 378.462 462.718C380.701 464.04 384.06 464.244 389.353 463.328Z" fill="#152B40"/>
<path d="M374.492 428.213H379.785C387.826 428.009 392.812 449.892 394.542 458.339C393.932 460.578 392.506 462.716 389.352 463.226C384.059 464.141 380.802 464.04 378.461 462.513C374.084 455.185 371.947 444.294 370.929 437.984C369.708 430.858 374.492 428.213 374.492 428.213Z" fill="white"/>
<path d="M379.072 417.222L382.022 428.825C382.43 430.249 381.718 431.777 380.395 432.386C378.766 433.202 376.426 434.117 374.286 433.812C373.269 433.71 372.455 432.998 372.149 432.082L367.876 419.868L379.072 417.222Z" fill="#F8B776"/>
<path d="M276.171 263.939C276.171 263.939 302.328 427.398 301.92 428.314C301.92 428.314 309.147 431.571 316.983 428.721C316.983 428.721 314.644 341.393 309.046 307.807C309.046 307.807 353.625 385.871 367.874 424.854C367.874 424.854 375.304 423.937 381.41 419.968C381.41 419.968 333.37 279.41 320.547 260.683L276.171 263.939Z" fill="#152B40"/>
<path d="M174.002 78.768C174.002 78.768 190.222 86.6317 199.552 93.9969C201.394 95.4848 202.673 97.5702 203.09 99.7624C204.62 107.352 209.821 126.704 225.966 139.26C222.562 142.108 216.575 148.313 211.899 159.96C202.957 149.236 196.779 133.521 197.638 110.283C197.638 110.283 193.723 111.334 189.965 108.236C187.95 106.601 185.756 104.401 184.059 102.738C182.365 101.077 181.456 98.7648 181.382 96.4446C181.302 93.2855 182.413 90.8315 183.077 88.0595L174.933 83.1768C174.833 83.153 172.398 81.5228 174.002 78.768Z" fill="#F8B776"/>
<path d="M280.012 151.161C278.423 150.846 277.049 150.591 275.961 150.398C274.055 150.046 272.179 150.014 270.355 150.204C250.204 152.172 235.96 146.976 225.889 139.22C222.484 142.067 216.495 148.27 211.817 159.918C227.951 179.242 253.223 182.097 262.897 182.467C262.956 182.342 263.02 182.218 263.079 182.093C264.31 182.747 265.643 183.259 267.062 183.599C276.085 185.761 284.726 180.086 287.314 171.176C291.42 157.044 279.735 151.641 280.012 151.161Z" fill="#F9DB02"/>
<path d="M343.668 157.391C318.897 149.127 289.447 149.114 276.135 149.638C272.739 161.115 269.181 172.593 266.787 184.07C267.195 183.989 267.586 183.908 267.935 183.833C265.69 200.625 265.683 227.292 274.934 266.276C275.137 267.294 276.053 268.007 277.07 268.109C282.974 268.619 302.82 269.745 321.855 265.476C322.77 265.272 323.178 264.357 322.873 263.544L322.669 263.136C321.144 259.37 320.433 255.399 320.638 251.328C321.353 239.013 324.72 211.228 331.749 192.198C331.924 192.492 332.087 192.783 332.254 193.075C335.485 181.271 339.202 168.738 345.875 158.255C345.161 157.93 344.424 157.639 343.668 157.391Z" fill="#F9DA01"/>
<path d="M315.052 127.147C315.052 127.147 316.986 147.503 318.715 153.508C319.021 154.425 318.613 155.34 317.698 155.849C314.849 157.478 307.926 160.225 298.461 155.544C296.933 154.831 296.018 153.203 296.12 151.471L296.933 131.828L315.052 127.147Z" fill="#E4A46C"/>
<path d="M356.305 167.446C353.69 162.807 349.476 159.267 344.418 157.558C338.849 168.667 336.429 181.514 334.419 193.585C345.084 208.437 344.786 220.867 340.332 230.363C343.256 233.953 346.72 238.816 350.005 244.926C381.704 221.734 365.557 183.893 356.305 167.446Z" fill="#F9DB02"/>
<path d="M350.115 244.897C346.918 238.676 343.352 233.824 340.435 230.337C333.647 244.949 319.669 256.307 319.669 256.307C318.815 255.471 312.514 257.378 306.438 259.488C297.539 260.594 288.287 261.571 288.287 261.571C288.287 261.571 301.692 267.564 309.681 267.665C317.543 267.739 320.681 264.611 321.903 261.697L322.265 261.668C334.309 258.385 343.16 249.907 350.115 244.897Z" fill="#F8B776"/>
<path d="M317.214 260.343L317.012 260.364L248.252 267.311C246.531 267.487 245.08 266.306 244.904 264.585C244.727 262.864 246.009 261.403 247.629 261.237L316.39 254.289C318.111 254.113 319.562 255.293 319.738 257.015C320.006 258.624 318.824 260.075 317.214 260.343Z" fill="#607AE4"/>
<path d="M180.17 211.983L237.477 206.107C241.729 205.671 245.825 207.705 247.931 211.276L280.058 264.152L208.878 271.45C206.145 271.731 203.549 270.359 202.277 267.933L176.45 218.605C175.035 215.783 176.93 212.315 180.17 211.983Z" fill="#E9EBFF"/>
<path d="M356.669 172.883C357.714 183.075 350.3 192.183 340.108 193.228C329.916 194.273 320.808 186.859 319.763 176.667C318.718 166.475 326.132 157.367 336.324 156.322C346.516 155.277 355.624 162.691 356.669 172.883Z" fill="#F9DB02"/>
<path d="M296.111 101.27C296.111 101.27 290.097 115.501 289.791 122.935C289.486 130.37 287.923 135.176 296.595 136.585C305.164 137.993 312.331 133.62 316.199 126.137C316.199 126.137 322.148 114.654 320.761 109.992C319.273 105.329 296.111 101.27 296.111 101.27Z" fill="#F8B776"/>
<path d="M313.177 120.886L312.665 120.689C312.051 120.393 311.735 119.684 312.032 119.069C313.221 116.712 315.488 111.286 312.417 110.107C308.426 108.532 292.812 105.59 289.379 100.141C286.05 94.8937 288.805 87.9351 293.155 85.9405C293.458 85.8341 293.764 85.9321 293.971 86.133L294.389 86.8407C294.598 87.346 295.31 87.2348 295.505 86.7232C295.6 86.2122 296.312 86.1009 296.522 86.6077C297.562 88.2211 300.449 90.9307 307.897 92.151C318.509 93.9405 325.588 98.1188 325.892 105.443C325.899 105.952 326.41 106.148 326.815 105.94C327.622 105.419 328.84 105.199 330.489 106.601C333.474 109.004 332.338 115.33 325.999 120.71C325.697 120.918 325.704 121.426 326.012 121.625C327.141 122.324 328.897 124.131 324.452 126.534C319.905 129.039 316.442 128.883 315.115 128.697C314.809 128.6 314.603 128.297 314.599 127.992L315.934 121.56C316.031 121.152 315.72 120.851 315.314 120.856L313.177 120.886Z" fill="#152B40"/>
<path d="M312.888 122.213C312.888 122.213 315.105 113.124 319.21 115.611C323.316 118.1 317.212 125.819 313.96 126.169L312.888 122.213Z" fill="#F8B776"/>
</svg>
